<svg xmlns="http://www.w3.org/2000/svg" width="38" height="38" viewBox="0 0 38 38">
  <g id="Group_68333" data-name="Group 68333" transform="translate(-960 -16)">
    <circle id="Ellipse_1" data-name="Ellipse 1" cx="19" cy="19" r="19" transform="translate(960 16)" fill="#fff"/>
    <path id="Icon_material-call" data-name="Icon material-call" d="M7.854,12.44a14.817,14.817,0,0,0,6.107,6.717L16,16.915a.863.863,0,0,1,.945-.245,9.7,9.7,0,0,0,3.308.581.979.979,0,0,1,.927,1.019v3.557a.979.979,0,0,1-.927,1.019c-8.7,0-15.753-7.757-15.753-17.328A.979.979,0,0,1,5.427,4.5H8.67A.979.979,0,0,1,9.6,5.519a12.641,12.641,0,0,0,.528,3.639,1.1,1.1,0,0,1-.232,1.04L7.854,12.44Z" transform="translate(966.5 21.5)" fill="#009849"/>
  </g>
</svg>
