<svg xmlns="http://www.w3.org/2000/svg" width="34.387" height="33.67" viewBox="0 0 34.387 33.67">
  <path id="Icon_map-doctor" data-name="Icon map-doctor" d="M30.754,9.317H27.226V5.573A4.8,4.8,0,0,0,22.431.72H13.4A4.8,4.8,0,0,0,8.6,5.573V9.317H5.072A4.273,4.273,0,0,0,.72,13.57V30.052A4.345,4.345,0,0,0,5.072,34.39H30.754a4.346,4.346,0,0,0,4.353-4.339V13.57A4.274,4.274,0,0,0,30.754,9.317ZM11.466,5.573A2.069,2.069,0,0,1,13.4,3.586h9.034a2.071,2.071,0,0,1,1.93,1.987V9.317h-12.9Zm14.328,19.5H20.779v5.015H15.048V25.077H10.033V19.346h5.015V14.331h5.731v5.015h5.015Z" transform="translate(-0.72 -0.72)" fill="#fff"/>
</svg>
