<svg xmlns="http://www.w3.org/2000/svg" width="17.765" height="40.466" viewBox="0 0 17.765 40.466">
  <g id="Group_68339" data-name="Group 68339" transform="translate(-19692.668 6568)">
    <path id="Path_74465" data-name="Path 74465" d="M302.19,442.692l-3.257,3.257-3.257-3.257a.977.977,0,0,0-1.382,1.382l3.948,3.948a.954.954,0,0,0,1.382,0l3.948-3.948a.977.977,0,1,0-1.382-1.382Z" transform="translate(19402.619 -6975.852)" fill="#003d4d"/>
    <path id="Path_74466" data-name="Path 74466" d="M303.572,381.1a.954.954,0,0,0-1.382,0l-3.257,3.257-3.257-3.257a.977.977,0,0,0-1.382,1.382l3.948,3.948a.954.954,0,0,0,1.382,0l3.948-3.948a.954.954,0,0,0,0-1.382Z" transform="translate(19402.619 -6919.684)" fill="#003d4d"/>
    <path id="Path_74467" data-name="Path 74467" d="M266.965,68.165V59.283a8.883,8.883,0,1,0-17.765,0v8.883a8.883,8.883,0,0,0,17.765,0Zm-8.883,6.909a6.929,6.929,0,0,1-6.909-6.909V59.283a6.909,6.909,0,0,1,13.817,0v8.883A6.929,6.929,0,0,1,258.083,75.074Z" transform="translate(19443.469 -6618.4)" fill="#003d4d"/>
    <path id="Path_74468" data-name="Path 74468" d="M339.788,112a.99.99,0,0,0-.987.987v2.961a.987.987,0,0,0,1.974,0v-2.961a.99.99,0,0,0-.987-.987Z" transform="translate(19361.762 -6674.571)" fill="#003d4d"/>
  </g>
</svg>
