<svg xmlns="http://www.w3.org/2000/svg" width="45.484" height="35.37" viewBox="0 0 45.484 35.37">
  <path id="Icon_awesome-home" data-name="Icon awesome-home" d="M22.138,11.429,7.58,23.419V36.36a1.263,1.263,0,0,0,1.263,1.263l8.848-.023a1.263,1.263,0,0,0,1.257-1.263V28.78a1.263,1.263,0,0,1,1.263-1.263h5.053a1.263,1.263,0,0,1,1.263,1.263v7.552A1.263,1.263,0,0,0,27.792,37.6l8.845.024A1.263,1.263,0,0,0,37.9,36.36V23.411L23.346,11.429A.963.963,0,0,0,22.138,11.429Zm23,8.149-6.6-5.441V3.2a.948.948,0,0,0-.948-.948H33.163a.948.948,0,0,0-.948.948V8.934L25.146,3.118a3.79,3.79,0,0,0-4.816,0L.343,19.579a.948.948,0,0,0-.126,1.334L2.23,23.361a.948.948,0,0,0,1.335.129l18.573-15.3a.963.963,0,0,1,1.208,0l18.574,15.3a.948.948,0,0,0,1.334-.126l2.013-2.448a.948.948,0,0,0-.134-1.337Z" transform="translate(0.001 -2.254)" fill="#fff"/>
</svg>
