<svg xmlns="http://www.w3.org/2000/svg" width="43.627" height="27.763" viewBox="0 0 43.627 27.763">
  <path id="Icon_material-weekend" data-name="Icon material-weekend" d="M41.161,17.415a3.978,3.978,0,0,0-3.966,3.966v5.949H9.432V21.381a3.966,3.966,0,0,0-7.932,0V31.3a3.978,3.978,0,0,0,3.966,3.966H41.161A3.978,3.978,0,0,0,45.127,31.3V21.381A3.978,3.978,0,0,0,41.161,17.415ZM35.212,7.5h-23.8a3.978,3.978,0,0,0-3.966,3.966V15.73a5.931,5.931,0,0,1,3.966,5.592v4.026h23.8V21.322a5.97,5.97,0,0,1,3.966-5.592V11.466A3.978,3.978,0,0,0,35.212,7.5Z" transform="translate(-1.5 -7.5)" fill="#fff"/>
</svg>
